<?xml version="1.0" encoding="UTF-8"?>
<svg width="110px" height="110px" viewBox="0 0 110 110" version="1.1" xmlns="http://www.w3.org/2000/svg" xmlns:xlink="http://www.w3.org/1999/xlink">
    <title>crab</title>
    <defs>
        <linearGradient x1="67.2853%" y1="-14.3866368%" x2="2.31780077%" y2="97.6253095%" id="linearGradient-1">
            <stop stop-color="#FF5500" offset="0%"></stop>
            <stop stop-color="#9B3400" offset="100%"></stop>
        </linearGradient>
        <path d="M88.4032259,65.4388206 C86.9146224,63.8812534 84.873099,62.9803944 82.725605,62.9334682 L77.8363575,62.9334682 C77.8298659,61.8844708 77.7267506,60.8383349 77.5283341,59.8084764 C81.9347676,58.3841441 84.9285154,54.2682435 84.9442061,49.6128977 L84.9442061,46.4359902 C90.1155661,44.1788251 93.3262766,38.9042508 92.9736275,33.245209 C93.2263247,27.518584 89.914089,22.2371175 84.666985,20 L84.666985,33.2426969 C84.727872,33.9248917 84.504124,34.6018507 84.0492793,35.1115925 C83.5944345,35.6213342 82.9494168,35.9179955 82.2685648,35.9305918 C81.5730072,35.9247029 80.9097371,35.6345562 80.4311712,35.126826 C79.9526053,34.6190959 79.6998971,33.9374436 79.7311178,33.2385102 L79.7311178,20 C74.516014,22.2536398 71.2540125,27.5420002 71.5626697,33.2426969 C71.2096593,38.9020364 74.42043,44.1770446 79.5920911,46.4343155 L79.5920911,49.6162471 C79.5852169,51.9545559 78.0790675,54.0212648 75.8641752,54.7316208 C75.1151168,53.1856877 74.1566781,51.7516224 73.0162073,50.4703445 C70.634214,47.7551955 67.4614568,45.8649364 63.9494962,45.0685969 L63.9494962,41.5408396 C63.9494962,40.054044 62.7511981,38.848758 61.2730224,38.848758 C59.7948468,38.848758 58.5965487,40.054044 58.5965487,41.5408396 L58.5965487,44.5125962 L52.5492997,44.5125962 L52.5492997,41.5408396 C52.5492997,40.054044 51.3510015,38.848758 49.8728259,38.848758 C48.3946502,38.848758 47.1963521,40.054044 47.1963521,41.5408396 L47.1963521,45.0694343 C43.6453403,45.8604235 40.4276191,47.7447147 37.9906143,50.4602963 C36.8493541,51.7443437 35.8908797,53.1815624 35.1426464,54.7307834 C32.9277541,54.0204274 31.4216047,51.9537185 31.4147305,49.6154097 L31.4147305,46.4359902 C36.5863915,44.1787193 39.7971623,38.9037111 39.4441518,33.2443716 C39.8113022,27.5686751 36.5999454,22.2710563 31.415563,20 L31.415563,33.2426969 C31.4137252,34.7280489 30.2158306,35.9310551 28.7390892,35.9305918 C27.2605768,35.9305918 26.4788633,34.7256445 26.4788633,33.2385102 L26.4788633,20 C21.2949123,22.2708943 17.6677284,27.5671358 18.0331941,33.2426969 C17.6801836,38.9020364 20.8909544,44.1770446 26.0626154,46.4343155 L26.0626154,49.6162471 C26.0784229,54.2718178 29.0725573,58.3877877 33.4793199,59.8118258 C33.2808269,60.841688 33.1774348,61.8878051 33.170464,62.9368176 L28.2795515,62.9368176 C26.1320575,62.9837438 24.0905341,63.8846028 22.6019306,65.44217 L18.817405,69.246253 C18.1214954,69.9221339 17.8423473,70.9231288 18.087267,71.8644484 C18.3321867,72.8057681 19.0630525,73.5408959 19.9989147,73.7872439 C20.9347769,74.0335918 21.9299682,73.7528158 22.6019306,73.052848 L26.3864563,68.8275778 C26.8881702,68.322523 27.5688965,68.0387643 28.2787191,68.0387937 L33.6316666,68.0387937 L33.746551,69.1516324 C33.8340605,70.0659469 34.0051684,70.9702026 34.2577034,71.8529248 L30.6821342,73.0335889 C28.0724844,73.8998798 26.0888888,76.0547696 25.4307511,78.7384574 L23.4685587,86.6505815 C23.2961317,87.3435964 23.4046315,88.0771286 23.7701643,88.6896409 C24.1356971,89.3021532 24.7282857,89.7434135 25.4174312,89.9162481 C25.629034,89.9695931 25.8461443,89.9976982 26.0642804,90 C27.292058,89.998264 28.3613197,89.1567808 28.6583371,87.9585229 L30.6138696,80.0597963 C30.8360087,79.1651345 31.4978285,78.4470097 32.3679381,78.1564988 L37.2796629,76.5111052 C39.2376929,78.2695411 41.7701449,79.6536814 44.393339,79.6486573 L66.6059901,79.6486573 C69.2283517,79.6536814 71.7616362,78.2661917 73.7196661,76.5111052 L78.623066,78.1564988 C79.4930299,78.4469757 80.1546065,79.1651775 80.376302,80.0597963 L82.3384945,87.9585229 C82.6363673,89.1615046 83.7125035,90.0043406 84.9450386,90 C85.164321,89.9984242 85.3826189,89.9703102 85.5952178,89.9162481 C86.2844826,89.7436129 86.8772132,89.3023906 87.2427809,88.6898198 C87.6083487,88.0772489 87.7167483,87.3436085 87.5440903,86.6505815 L85.5794004,78.7485056 C84.9198982,76.0651919 82.9369389,73.9103609 80.3280173,73.0419624 L76.7624381,71.8529248 C77.0129084,70.9706846 77.18316,70.0673774 77.2710929,69.1541444 L77.3834799,68.0413057 L82.7364274,68.0413057 C83.4461772,68.0416442 84.126769,68.3253469 84.6286902,68.8300898 L88.4123833,73.0553601 C89.4626086,74.0753592 91.1317577,74.0606643 92.1640712,73.0223308 C93.1963848,71.9839974 93.2109945,70.3051146 92.1969089,69.248765 L88.4032259,65.4388206 Z" id="path-2"></path>
        <filter x="-52.0%" y="-51.4%" width="204.0%" height="211.4%" filterUnits="objectBoundingBox" id="filter-3">
            <feOffset dx="0" dy="3" in="SourceAlpha" result="shadowOffsetOuter1"></feOffset>
            <feGaussianBlur stdDeviation="12.5" in="shadowOffsetOuter1" result="shadowBlurOuter1"></feGaussianBlur>
            <feColorMatrix values="0 0 0 0 0   0 0 0 0 0   0 0 0 0 0  0 0 0 0.15 0" type="matrix" in="shadowBlurOuter1"></feColorMatrix>
        </filter>
    </defs>
    <g id="crab" stroke="none" stroke-width="1" fill="none" fill-rule="evenodd">
        <rect id="Rectangle" stroke-opacity="0.15" stroke="#FFFFFF" stroke-width="2" fill="url(#linearGradient-1)" x="1" y="1" width="108" height="108" rx="11"></rect>
        <g id="shape">
            <use fill="black" fill-opacity="1" filter="url(#filter-3)" xlink:href="#path-2"></use>
            <use fill="#FFFFFF" fill-rule="evenodd" xlink:href="#path-2"></use>
        </g>
    </g>
</svg>