<?xml version="1.0" encoding="UTF-8"?>
<svg width="90px" height="89px" viewBox="0 0 90 89" version="1.1" xmlns="http://www.w3.org/2000/svg" xmlns:xlink="http://www.w3.org/1999/xlink">
    <title>squid</title>
    <g id="emojis" stroke="none" stroke-width="1" fill="none" fill-rule="evenodd">
        <path d="M62.512354,52.9621686 C54.618354,37.2521686 42.861354,35.6681686 36.386354,36.1771686 C24.979354,62.3461686 3.66235397,52.7031686 1.06135397,66.4761686 C-0.326646033,73.8351686 0.875353967,75.5911686 1.71635397,75.9841686 C3.26835397,76.7071686 6.44335397,74.4541686 10.006354,70.1041686 C14.489354,64.6311686 21.915354,63.7611686 26.006354,63.7381686 C27.275354,63.0601686 28.565354,62.4131686 29.841354,61.8181686 C30.034946,61.7288169 30.2643404,61.8128835 30.354354,62.0061686 C30.444354,62.1991686 31.393354,63.1661686 31.200354,63.2561686 C23.371354,66.9071686 15.147354,71.2051686 10.367354,75.7961686 C6.55135397,79.4601686 4.48735397,82.6681686 4.98135397,84.1671686 C5.34435397,85.2671686 7.19035397,85.2421686 8.67535397,85.0261686 C17.581354,83.7351686 29.403354,74.4761686 34.112354,70.5211686 C36.5176997,67.224302 39.2167266,64.1520838 42.176354,61.3421686 C42.2508495,61.271825 42.3502558,61.2339851 42.4526707,61.2369863 C42.5550856,61.2399875 42.6521054,61.2835834 42.722354,61.3581686 C42.869354,61.5131686 44.484354,62.6421686 44.328354,62.7881686 C39.386354,67.4491686 29.228354,78.3221686 31.628354,84.7041686 C32.350354,86.6251686 32.728354,87.6481686 35.657354,88.3281686 C42.210354,89.8481686 46.793354,87.8901686 49.196354,84.7381686 C50.612354,82.8801686 50.996354,80.9081686 50.543354,80.0761686 C50.4221936,79.8212826 50.1483797,79.6758443 49.869354,79.7181686 C48.043354,79.8501686 45.027354,79.2921686 44.200354,77.2041686 C43.339354,75.0301686 45.155354,72.1041686 49.600354,68.4971686 C58.866354,60.9781686 62.046354,54.0621686 62.512354,52.9621686 L62.512354,52.9621686 Z M20.054354,49.9911686 C10.016354,44.9981686 9.22735397,36.6331686 24.714354,26.9231686 C35.114354,20.4061686 34.845354,14.7781686 33.761354,12.0041686 C32.820354,9.59516859 31.004354,8.42416859 30.569354,8.42416859 C30.3468686,8.68952806 30.1462141,8.97245078 29.969354,9.27016859 C28.869354,10.9891686 26.824354,14.1861686 20.088354,16.9911686 C14.805354,19.1911686 -1.27264603,25.8911686 5.76735397,43.1111686 C8.00435397,48.5851686 10.267354,49.9611686 14.533354,52.4431686 C16.4289993,51.7557331 18.274179,50.9363957 20.055354,49.9911686 L20.055354,49.9911686 L20.054354,49.9911686 Z M20.054354,49.9911686 L84.616354,40.3361686 C81.616354,40.5221686 76.326354,42.6361686 74.643354,54.6581686 C72.049354,73.1821686 62.396354,77.0761686 53.490354,69.1771686 C51.921354,70.5291686 51.422354,70.8451686 50.205354,71.9841686 C53.256354,75.8351686 57.130354,78.8551686 67.599354,78.3931686 C86.403354,77.5621686 85.890354,60.3401686 85.721354,54.6821686 C85.459354,45.8201686 88.703354,43.0271686 89.263354,41.7131686 C89.088354,41.3271686 87.228354,40.1731686 84.617354,40.3361686 L84.617354,40.3361686 L20.054354,49.9911686 Z M35.503354,36.2621686 C34.2520409,36.404336 33.0145376,36.649161 31.803354,36.9941686 C31.6138931,36.9948408 31.4519522,36.8579096 31.4211274,36.6709719 C31.3903026,36.4840342 31.4997074,36.3023598 31.679354,36.2421686 C31.750354,36.2191686 35.193354,32.4171686 37.855354,32.1821686 C48.900354,31.2101686 59.744354,36.8681686 66.330354,52.3121686 C65.8083809,53.6280483 65.1487125,54.8850383 64.362354,56.0621686 C64.1654611,56.1454558 63.938294,56.053784 63.854354,55.8571686 C63.566354,55.1831686 63.265354,54.5171686 62.954354,53.8671686 C62.390261,55.0453432 61.7464323,56.1836537 61.027354,57.2741686 C62.783354,58.2271686 64.309354,58.3571686 65.571354,57.6581686 C72.731354,53.6921686 68.200354,24.9231686 67.378354,16.7581686 C67.356354,16.5461686 70.312354,16.3581686 70.524354,16.3351686 C70.7369612,16.3142556 70.9262991,16.4695754 70.947354,16.6821686 C72.271389,23.1075907 72.9268808,29.6527902 72.903354,36.2131686 C78.203354,36.4431686 80.088354,33.2471686 80.845354,26.7131686 C82.159354,15.3611686 82.919354,4.87616859 77.845354,1.30616859 C74.532354,-1.02783141 69.049354,-0.237831413 61.080354,3.70816859 C46.992354,10.6901686 40.340354,16.1241686 41.780354,20.8571686 C46.0745243,18.5980107 50.5935108,16.7948402 55.263354,15.4771686 C55.359994,15.4407094 55.4671987,15.4443949 55.5611068,15.4874048 C55.6550148,15.5304147 55.7278331,15.6091797 55.763354,15.7061686 C55.837354,15.9061686 56.763354,17.8981686 56.563354,17.9721686 C48.830354,20.8311686 27.533354,28.1521686 27.381354,36.3671686 C27.339354,38.6551686 28.890354,40.7771686 31.981354,42.6811686 C33.3391048,40.6475803 34.517539,38.499832 35.503354,36.2621686 L35.503354,36.2621686 L35.503354,36.2621686 Z" id="squid" fill="#FF00FF"></path>
    </g>
</svg>