<?xml version="1.0" encoding="UTF-8"?>
<svg width="339px" height="339px" viewBox="0 0 339 339" version="1.1" xmlns="http://www.w3.org/2000/svg" xmlns:xlink="http://www.w3.org/1999/xlink">
    <circle id="Oval" fill="#50AF95" cx="169.5" cy="169.5" r="169.5"></circle>
    <path d="M191.184533,186.800195 L191.184533,186.800195 C189.984533,186.890195 183.784533,187.260195 169.954533,187.260195 C158.954533,187.260195 151.144533,186.930195 148.404533,186.800195 L148.404533,186.800195 C105.894533,184.930195 74.1645326,177.530195 74.1645326,168.670195 C74.1645326,159.810195 105.894533,152.420195 148.404533,150.520195 L148.404533,179.430195 C151.184533,179.630195 159.144533,180.100195 170.144533,180.100195 C183.344533,180.100195 189.954533,179.550195 191.144533,179.440195 L191.144533,150.540195 C233.564533,152.430195 265.224533,159.830195 265.224533,168.670195 C265.224533,177.510195 233.574533,184.910195 191.144533,186.790195 L191.144533,186.790195 L191.184533,186.800195 Z M191.184533,147.550195 L191.184533,121.680195 L250.384533,121.680195 L250.384533,82.2301946 L89.2045326,82.2301946 L89.2045326,121.680195 L148.394533,121.680195 L148.394533,147.540195 C100.284533,149.750195 64.1045326,159.280195 64.1045326,170.700195 C64.1045326,182.120195 100.284533,191.640195 148.394533,193.860195 L148.394533,276.760195 L191.174533,276.760195 L191.174533,193.830195 C239.174533,191.620195 275.294533,182.100195 275.294533,170.690195 C275.294533,159.280195 239.204533,149.760195 191.174533,147.540195 L191.174533,147.540195 L191.184533,147.550195 Z" fill="#FFFFFF"></path>
</svg>