<?xml version="1.0" encoding="UTF-8"?>
<svg width="110px" height="110px" viewBox="0 0 110 110" version="1.1" xmlns="http://www.w3.org/2000/svg" xmlns:xlink="http://www.w3.org/1999/xlink">
    <title>dolphin</title>
    <defs>
        <linearGradient x1="67.2853%" y1="-14.3866368%" x2="2.31780077%" y2="97.6253095%" id="linearGradient-1">
            <stop stop-color="#00EAFF" offset="0%"></stop>
            <stop stop-color="#008F9B" offset="100%"></stop>
        </linearGradient>
        <path d="M83.1437562,79.2401577 C86.9188524,67.2291004 86.6943143,48.7706185 77.3271883,35.4551456 C71.1321587,26.6533516 61.9594209,22 50.7912297,22 C35.5385082,22 29.2704839,32.9948174 27.2869319,37.7204135 C26.8217551,38.8384413 25.7398979,39.5658109 24.5409025,39.5666631 C22.8843444,39.5672625 21.3148816,40.3174423 20.2624362,41.6117061 C19.2099909,42.9059699 18.7848931,44.6086373 19.1035898,46.2532973 C19.6495256,48.8844092 21.9414996,50.7696712 24.5988222,50.7733979 C25.2256247,50.7824953 25.8828416,50.7889171 26.5704729,50.7926631 C32.8782813,50.6934061 39.1794557,51.2507482 45.3745459,52.4558931 C45.1739881,55.9590843 46.2630584,59.4132794 48.4315962,62.1519141 C50.5147578,64.6948068 53.4205978,66.4093145 56.6339805,66.9914961 C57.0988515,67.0765434 57.5685514,66.8696839 57.8237825,66.4674979 C58.0790137,66.065312 58.0694338,65.5471276 57.7995156,65.1548791 C56.7599923,63.6454255 56.243846,61.8301663 56.3316871,59.9926048 C56.3713266,58.7473591 56.6084053,57.516638 57.0338645,56.3474661 C66.7054881,59.7840409 73.4602487,68.6727138 74.2574433,79.0121861 C70.1268946,81.1458084 66.6485378,85.8392958 68.5281517,93.119138 C68.623837,93.4878862 68.889722,93.7871434 69.2419781,93.9225595 C69.5942343,94.0579757 69.9894546,94.0128641 70.303034,93.8014477 L75.3142798,90.4300354 C77.2398402,89.1298771 79.7495738,89.1298771 81.6751343,90.4300354 L86.6863801,93.8014477 C86.9998732,94.0132434 87.3952561,94.0585669 87.7476396,93.9231017 C88.1000231,93.7876366 88.3658905,93.4881118 88.4612624,93.119138 C90.6209538,84.762852 85.7636317,80.7468579 83.1374088,79.2401577 L83.1374088,79.2401577 L83.1437562,79.2401577 Z M40.8177224,39.6597783 C39.722413,39.6590226 38.8350235,38.7602175 38.83552,37.6520746 C38.8360169,36.5439318 39.7242116,35.6459413 40.8195212,35.6461923 C41.9148309,35.6464435 42.802624,36.5448411 42.802624,37.6529841 C42.8029824,38.1855664 42.5939315,38.6964198 42.2215737,39.0728844 C41.8492158,39.4493489 41.3441365,39.6605016 40.8177224,39.6597783 L40.8177224,39.6597783 L40.8177224,39.6597783 Z M37.5220602,53.639901 C38.795031,57.2429615 41.5765082,60.0928731 45.1214447,61.4262578 C43.926802,59.2716388 43.2220705,56.8746255 43.0585506,54.4097067 C41.1400591,54.0629329 39.2945623,53.821315 37.5204734,53.6439145 L37.5204734,53.6439145 L37.5220602,53.639901 Z M79.1576101,33.9942003 C80.6514084,31.6005202 82.4996668,29.4531104 84.6377676,27.6270475 C84.920315,27.3884987 85.0751071,27.0291004 85.0554291,26.6573155 C85.035751,26.2855306 84.8439081,25.9449116 84.5377966,25.738254 C78.0428539,21.3594317 72.3246702,22.4952765 68.6558924,24.2259348 C72.8070019,26.6842694 76.3882272,30.0153778 79.1576101,33.9942003 L79.1576101,33.9942003 Z" id="path-2"></path>
        <filter x="-55.7%" y="-50.0%" width="211.4%" height="208.3%" filterUnits="objectBoundingBox" id="filter-3">
            <feOffset dx="0" dy="3" in="SourceAlpha" result="shadowOffsetOuter1"></feOffset>
            <feGaussianBlur stdDeviation="12.5" in="shadowOffsetOuter1" result="shadowBlurOuter1"></feGaussianBlur>
            <feColorMatrix values="0 0 0 0 0   0 0 0 0 0   0 0 0 0 0  0 0 0 0.15 0" type="matrix" in="shadowBlurOuter1"></feColorMatrix>
        </filter>
    </defs>
    <g id="dolphin" stroke="none" stroke-width="1" fill="none" fill-rule="evenodd">
        <rect id="Rectangle" stroke-opacity="0.15" stroke="#FFFFFF" stroke-width="2" fill="url(#linearGradient-1)" x="1" y="1" width="108" height="108" rx="11"></rect>
        <g id="shape">
            <use fill="black" fill-opacity="1" filter="url(#filter-3)" xlink:href="#path-2"></use>
            <use fill="#FFFFFF" fill-rule="evenodd" xlink:href="#path-2"></use>
        </g>
    </g>
</svg>